<svg width="20" height="20" viewBox="0 0 20 20" fill="none" xmlns="http://www.w3.org/2000/svg">
<path d="M14.9016 16.0806C13.436 17.0103 11.7356 17.5026 9.99996 17.4998C5.50663 17.4998 1.7683 14.2665 0.984131 9.99981C1.34249 8.05874 2.31882 6.28556 3.76746 4.94481L1.15996 2.33981L2.33913 1.16064L18.8383 17.6606L17.6591 18.839L14.9008 16.0806H14.9016ZM4.9458 6.12481C3.8133 7.15447 3.02439 8.50713 2.6858 9.99981C2.94604 11.1385 3.46852 12.2008 4.21163 13.102C4.95475 14.0032 5.89799 14.7185 6.96626 15.1909C8.03453 15.6633 9.19834 15.8799 10.365 15.8233C11.5317 15.7666 12.6691 15.4385 13.6866 14.8648L11.9966 13.1748C11.2772 13.628 10.4251 13.8232 9.58016 13.7285C8.73519 13.6338 7.9475 13.2547 7.34627 12.6535C6.74505 12.0523 6.36599 11.2646 6.27127 10.4196C6.17654 9.57464 6.37178 8.72257 6.82496 8.00314L4.9458 6.12481ZM10.7616 11.9398L8.05996 9.23814C7.91168 9.61559 7.87679 10.0281 7.95955 10.4251C8.04232 10.8221 8.23914 11.1863 8.5259 11.473C8.81265 11.7598 9.17685 11.9566 9.57384 12.0394C9.97083 12.1222 10.3834 12.0873 10.7608 11.939L10.7616 11.9398ZM17.3391 13.8265L16.1466 12.6348C16.7037 11.8409 17.1003 10.9458 17.3141 9.99981C17.0877 9.00792 16.6618 8.07243 16.0626 7.25022C15.4633 6.42801 14.7031 5.73625 13.8282 5.21698C12.9533 4.69771 11.9819 4.36178 10.9731 4.22961C9.96428 4.09744 8.93913 4.17179 7.95996 4.44814L6.64496 3.13314C7.68413 2.72481 8.81663 2.49981 9.99996 2.49981C14.4933 2.49981 18.2316 5.73314 19.0158 9.99981C18.7605 11.3879 18.1865 12.6978 17.3391 13.8265V13.8265ZM9.76913 6.25648C10.2996 6.2237 10.8309 6.30403 11.3279 6.49216C11.8249 6.68028 12.2763 6.9719 12.6521 7.34769C13.0279 7.72347 13.3195 8.17483 13.5076 8.67186C13.6957 9.16888 13.7761 9.70022 13.7433 10.2306L9.7683 6.25648H9.76913Z" fill="#0D1126" fill-opacity="0.4"/>
</svg>
